<?xml version="1.0" encoding="UTF-8" standalone="no"?>
<svg
   xmlns:dc="http://purl.org/dc/elements/1.1/"
   xmlns:cc="http://creativecommons.org/ns#"
   xmlns:rdf="http://www.w3.org/1999/02/22-rdf-syntax-ns#"
   xmlns:svg="http://www.w3.org/2000/svg"
   xmlns="http://www.w3.org/2000/svg"
   viewBox="0 0 418.96249 27.2125"
   height="27.2125"
   width="418.96249"
   xml:space="preserve"
   version="1.1"
   id="svg2"><metadata
     id="metadata8"><rdf:RDF><cc:Work
         rdf:about=""><dc:format>image/svg+xml</dc:format><dc:type
           rdf:resource="http://purl.org/dc/dcmitype/StillImage" /></cc:Work></rdf:RDF></metadata><defs
     id="defs6" /><g
     transform="matrix(1.25,0,0,-1.25,0,27.2125)"
     id="g10"><g
       transform="scale(0.1,0.1)"
       id="g12"><path
         id="path14"
         style="fill:#857437;fill-opacity:1;fill-rule:nonzero;stroke:none"
         d="M 46.5469,0 C 28.1719,0 21.1289,2.14453 14.6992,8.57422 3.98047,19.293 0,34.9102 0,107.188 c 0,72.269 3.98047,87.89 14.6992,98.609 6.4297,6.43 13.4727,8.574 31.8477,8.574 l 67.3751,0 c 17.457,0 27.254,-2.453 32.766,-7.965 9.8,-9.801 12.253,-20.515 12.863,-62.472 l -33.379,0 c -0.309,27.257 -1.531,34.605 -3.984,37.058 -1.836,1.836 -4.29,2.754 -13.473,2.754 l -55.1252,0 c -9.4921,0 -11.6367,-0.613 -13.7812,-2.754 -3.0625,-3.062 -4.2852,-11.945 -4.2852,-73.804 0,-61.8677 1.2227,-70.7427 4.2852,-73.8091 2.1445,-2.1445 4.2891,-2.7539 13.7812,-2.7539 l 55.1252,0 c 8.574,0 11.328,0.918 13.473,3.0625 2.453,2.4492 3.062,7.9609 3.984,40.1172 l 33.687,0 C 159.242,30.0117 157.102,18.6836 146.688,8.26563 140.563,2.14453 129.539,0 113.613,0 L 46.5469,0" /><path
         id="path16"
         style="fill:#857437;fill-opacity:1;fill-rule:nonzero;stroke:none"
         d="m 302.363,120.969 c 8.883,0 11.946,0.914 13.477,2.449 2.754,2.754 3.98,7.348 3.98,29.398 0,22.047 -1.226,27.258 -3.98,30.012 -1.531,1.531 -4.594,2.449 -13.477,2.449 l -57.875,0 0,-64.308 57.875,0 z m 50.84,-91.262 24.496,0 0,-29.707 -30.926,0 c -12.867,0 -17.457,2.14453 -21.132,5.82031 -4.594,4.58989 -7.047,12.86329 -8.27,55.12109 -0.613,17.1484 -2.758,22.6602 -6.734,26.6484 -4.907,4.8946 -10.11,5.8125 -20.828,5.8125 l -45.321,0 0,-64.3085 29.399,0 0,-29.0938 -90.957,0 0,29.0938 28.789,0 0,156.1832 -28.789,0 0,29.094 130.156,0 c 14.086,0 23.578,-2.453 30.012,-8.883 8.265,-8.265 11.632,-18.683 11.632,-50.836 0,-37.664 -8.878,-45.32 -33.378,-48.691 l 0,-0.613 c 22.664,-4.289 29.093,-12.8636 30.32,-44.098 0.305,-9.4961 0.918,-22.0508 1.531,-31.543" /><path
         id="path18"
         style="fill:#857437;fill-opacity:1;fill-rule:nonzero;stroke:none"
         d="m 396.688,185.277 0,29.094 167.824,0 0,-64.621 -32.157,0 0,35.527 -74.109,0 0,-60.023 57.574,0 0,-28.1759 -57.574,0 0,-67.9843 76.559,0 0,40.1171 32.16,0 0,-69.2109 -170.277,0 0,29.0938 28.792,0 0,156.1832 -28.792,0" /><path
         id="path20"
         style="fill:#857437;fill-opacity:1;fill-rule:nonzero;stroke:none"
         d="m 663.734,94.9375 58.184,0 -26.641,90.3395 -4.593,0 -26.95,-90.3395 z M 588.398,0 l 0,29.0938 23.278,0 55.429,175.7852 c 2.754,8.574 5.512,10.41 14.696,10.41 l 25.726,0 c 9.188,0 11.946,-1.836 14.7,-10.41 l 55.429,-175.7852 23.278,0 0,-29.0938 -88.817,0 0,29.0938 29.403,0 -11.329,38.2773 c -18.683,0 -54.82,-0.3047 -74.421,-0.3047 l -11.329,-37.9726 29.403,0 0,-29.0938 -85.446,0" /><path
         id="path22"
         style="fill:#857437;fill-opacity:1;fill-rule:nonzero;stroke:none"
         d="m 925.383,29.0938 0,-29.0938 -93.41,0 0,29.0938 30.316,0 0,156.1832 -44.402,0 0,-41.648 -32.157,0 0,70.742 185.891,0 0,-70.742 -32.152,0 0,41.648 -44.41,0 0,-156.1832 30.324,0" /><path
         id="path24"
         style="fill:#857437;fill-opacity:1;fill-rule:nonzero;stroke:none"
         d="m 1091.97,29.0938 0,-29.0938 -92.79,0 0,29.0938 30.01,0 0,156.1832 -30.01,0 0,29.094 92.79,0 0,-29.094 -30.01,0 0,-156.1832 30.01,0" /><path
         id="path26"
         style="fill:#857437;fill-opacity:1;fill-rule:nonzero;stroke:none"
         d="m 1277.56,185.277 -28.79,0 0,29.094 87.9,0 0,-29.094 -28.18,0 0,-185.277 -39.2,0 c -8.88,0 -10.72,1.83594 -14.39,10.1055 l -71.66,164.7575 -4.6,0 0,-145.7692 28.79,0 0,-29.0938 -88.5,0 0,29.0938 28.78,0 0,156.1832 -28.78,0 0,29.094 71.05,0 c 8.88,0 10.71,-1.836 14.39,-10.109 l 68.6,-157.4065 4.59,0 0,138.4215" /><path
         id="path28"
         style="fill:#857437;fill-opacity:1;fill-rule:nonzero;stroke:none"
         d="m 1494.69,146.996 c -0.61,25.422 -1.53,31.543 -3.98,33.996 -1.84,1.836 -4.29,2.754 -13.47,2.754 l -55.13,0 c -9.49,0 -11.64,-0.613 -13.78,-2.754 -3.06,-3.062 -4.29,-11.945 -4.29,-73.804 0,-61.8677 1.23,-70.7427 4.29,-73.8091 2.14,-2.1445 4.29,-2.7539 13.78,-2.7539 l 56.65,0 c 8.58,0 11.65,0.6094 13.79,2.7539 2.45,2.4492 3.98,11.9414 3.98,38.8945 l 0,10.7188 -45.02,0 0,28.1758 78.4,0 0,-32.1602 c 0,-47.1562 -3.06,-60.0195 -12.56,-69.51561 C 1510.31,2.44922 1501.12,0 1483.97,0 l -68.9,0 c -18.38,0 -25.42,2.14453 -31.85,8.57422 -10.72,10.71878 -14.7,26.33598 -14.7,98.61378 0,72.269 3.98,87.89 14.7,98.609 6.43,6.43 13.47,8.574 31.85,8.574 l 67.37,0 c 17.46,0 27.26,-2.453 32.77,-7.965 9.8,-9.801 12.25,-21.433 12.86,-59.41 l -33.38,0" /><path
         id="path30"
         style="fill:#857437;fill-opacity:1;fill-rule:nonzero;stroke:none"
         d="m 1786.24,29.0938 0,-29.0938 -93.41,0 0,29.0938 30.32,0 0,156.1832 -44.4,0 0,-41.648 -32.16,0 0,70.742 185.89,0 0,-70.742 -32.15,0 0,41.648 -44.41,0 0,-156.1832 30.32,0" /><path
         id="path32"
         style="fill:#857437;fill-opacity:1;fill-rule:nonzero;stroke:none"
         d="m 2039.5,29.0938 28.79,0 0,-29.0938 -90.35,0 0,29.0938 28.79,0 0,67.9843 -86.97,0 0,-67.9843 28.78,0 0,-29.0938 -90.34,0 0,29.0938 28.79,0 0,156.1832 -28.79,0 0,29.094 90.34,0 0,-29.094 -28.78,0 0,-60.023 86.97,0 0,60.023 -28.79,0 0,29.094 90.35,0 0,-29.094 -28.79,0 0,-156.1832" /><path
         id="path34"
         style="fill:#857437;fill-opacity:1;fill-rule:nonzero;stroke:none"
         d="m 2093.71,185.277 0,29.094 167.82,0 0,-64.621 -32.15,0 0,35.527 -74.12,0 0,-60.023 57.58,0 0,-28.1759 -57.58,0 0,-67.9843 76.57,0 0,40.1171 32.15,0 0,-69.2109 -170.27,0 0,29.0938 28.79,0 0,156.1832 -28.79,0" /><path
         id="path36"
         style="fill:#857437;fill-opacity:1;fill-rule:nonzero;stroke:none"
         d="m 2532.26,185.277 -28.79,0 0,29.094 87.89,0 0,-29.094 -28.18,0 0,-185.277 -39.2,0 c -8.87,0 -10.72,1.83594 -14.39,10.1055 l -71.66,164.7575 -4.59,0 0,-145.7692 28.78,0 0,-29.0938 -88.5,0 0,29.0938 28.78,0 0,156.1832 -28.78,0 0,29.094 71.05,0 c 8.87,0 10.71,-1.836 14.39,-10.109 l 68.6,-157.4065 4.6,0 0,138.4215" /><path
         id="path38"
         style="fill:#857437;fill-opacity:1;fill-rule:nonzero;stroke:none"
         d="m 2612.8,185.277 0,29.094 167.82,0 0,-64.621 -32.15,0 0,35.527 -74.11,0 0,-60.023 57.56,0 0,-28.1759 -57.56,0 0,-67.9843 76.56,0 0,40.1171 32.15,0 0,-69.2109 -170.27,0 0,29.0938 28.78,0 0,156.1832 -28.78,0" /><path
         id="path40"
         style="fill:#857437;fill-opacity:1;fill-rule:nonzero;stroke:none"
         d="m 2890.25,106.879 -54.51,78.398 -25.42,0 0,29.094 89.43,0 0,-28.48 -25.73,0 37.06,-57.27 4.29,0 39.5,57.27 -25.72,0 0,28.48 84.82,0 0,-29.094 -25.41,0 -54.51,-75.027 56.04,-81.1562 25.42,0 0,-29.0938 -92.48,0 0,28.4805 28.78,0 -38.89,60.3281 -3.98,0 -41.04,-60.3281 28.79,0 0,-28.4805 -87.89,0 0,29.0938 25.41,0 56.04,77.7852" /><path
         id="path42"
         style="fill:#857437;fill-opacity:1;fill-rule:nonzero;stroke:none"
         d="m 3177.21,29.0938 0,-29.0938 -93.41,0 0,29.0938 30.32,0 0,156.1832 -44.4,0 0,-41.648 -32.16,0 0,70.742 185.89,0 0,-70.742 -32.16,0 0,41.648 -44.41,0 0,-156.1832 30.33,0" /><path
         id="path44"
         style="fill:#231f20;fill-opacity:1;fill-rule:nonzero;stroke:none"
         d="m 3301.83,179.266 7.81,0 c 6.6,0 12.66,0.332 12.66,7.925 0,6.379 -5.5,7.368 -10.57,7.368 l -9.9,0 0,-15.293 z m -7.48,21.343 18.6,0 c 11.44,0 16.83,-4.511 16.83,-13.754 0,-8.687 -5.5,-12.32 -12.65,-13.089 l 13.75,-21.235 -8.03,0 -13.09,20.688 -7.93,0 0,-20.688 -7.48,0 0,48.078 z m 16.07,-59.187 c 19.03,0 33.77,15.183 33.77,35.316 0,19.692 -14.74,34.875 -33.77,34.875 -19.26,0 -34,-15.183 -34,-34.875 0,-20.133 14.74,-35.316 34,-35.316 z m 0,76.242 c 22.44,0 41.25,-17.715 41.25,-40.926 0,-23.66 -18.81,-41.371 -41.25,-41.371 -22.56,0 -41.48,17.711 -41.48,41.371 0,23.211 18.92,40.926 41.48,40.926" /></g></g></svg>
